		<svg version="1.1" id="圖層_1" xmlns="http://www.w3.org/2000/svg" xmlns:xlink="http://www.w3.org/1999/xlink" x="0px" y="0px" viewBox="0 0 100 100" style="transform-origin: 50px 50px 0px;" xml:space="preserve"><g style="transform-origin: 50px 50px 0px;"><g style="transform-origin: 50px 50px 0px; transform: scale(0.6);"><g style="transform-origin: 50px 50px 0px;"><g><style type="text/css" class="ld ld-fade" style="transform-origin: 50px 50px 0px; animation-duration: 1s; animation-delay: -1s; animation-direction: normal;">.st0{fill:#D1D1D1;} .st1{fill:#454545;} .st2{fill:#464646;} .st3{fill:#FFFFFF;}</style><g class="ld ld-fade" style="transform-origin: 50px 50px 0px; animation-duration: 1s; animation-delay: -0.928571s; animation-direction: normal;"><path class="st0" d="M91.514,32.012c-0.954-1.307-2.492-2.056-4.218-2.056c-0.63,0-1.285,0.098-1.946,0.293l-13.545,3.98 c-3.537,1.04-6.043,4.599-5.829,8.279l0.395,6.783h-3.933l2.032-7.196c0.819-2.901,0.252-6.86-1.349-9.414l-8.223-13.117 c-1.174-1.873-2.984-2.948-4.964-2.948c-1.984,0-3.794,1.077-4.968,2.956l-8.191,13.111c-1.595,2.554-2.161,6.511-1.345,9.41 l2.025,7.199h-3.893l0.393-6.783c0.213-3.679-2.291-7.239-5.825-8.281l-13.474-3.974c-0.663-0.195-1.32-0.295-1.952-0.295 c-1.725,0-3.262,0.749-4.217,2.055c-1.036,1.416-1.266,3.264-0.649,5.203l10.29,32.355c0.396,1.245,1.12,2.376,2.052,3.311 c-1.446,1.102-2.338,2.657-2.338,4.411c0,3.416,3.368,6.092,7.667,6.092h47.544c4.299,0,7.666-2.676,7.666-6.092 c0-1.446-0.608-2.755-1.629-3.789c1.263-1.033,2.252-2.394,2.741-3.928l10.327-32.357C92.778,35.278,92.549,33.429,91.514,32.012z" fill="rgb(209, 209, 209)" style="fill: rgb(209, 209, 209);"></path></g><g style="transform-origin: 50px 50px 0px;"><g><g class="ld ld-fade" style="transform-origin: 50px 50px 0px; animation-duration: 1s; animation-delay: -0.857143s; animation-direction: normal;"><path class="st2" d="M73.053,74.804H25.509c-2.235,0-4.063,1.12-4.063,2.489s1.828,2.489,4.063,2.489h47.544 c2.235,0,4.063-1.12,4.063-2.489S75.287,74.804,73.053,74.804z" fill="rgb(70, 70, 70)" style="fill: rgb(70, 70, 70);"></path></g><g class="ld ld-fade" style="transform-origin: 50px 50px 0px; animation-duration: 1s; animation-delay: -0.785714s; animation-direction: normal;"><path class="st2" d="M86.365,33.705l-13.545,3.98c-1.901,0.559-3.363,2.635-3.248,4.613l0.407,6.998 c0.115,1.979-1.412,3.597-3.394,3.597h-5.307c-1.982,0-3.162-1.56-2.624-3.467l2.346-8.311c0.539-1.907,0.118-4.842-0.935-6.52 l-8.223-13.117c-1.053-1.679-2.773-1.678-3.823,0.003l-8.19,13.11c-1.05,1.681-1.47,4.617-0.933,6.525l2.338,8.309 c0.537,1.908-0.646,3.469-2.628,3.469h-5.261c-1.982,0-3.509-1.619-3.395-3.597l0.406-6.998c0.115-1.979-1.347-4.056-3.248-4.617 l-13.473-3.974c-1.901-0.561-2.965,0.526-2.364,2.415l10.29,32.355c0.601,1.888,2.713,3.434,4.695,3.434h20.069 c1.982,0,5.225,0,7.207,0h20.168c1.982,0,4.096-1.545,4.698-3.432c2.582-8.089,10.328-32.357,10.328-32.357 C89.329,34.234,88.266,33.147,86.365,33.705z M34.207,67.689c-2.023,0-3.663-1.64-3.663-3.663c0-2.023,1.64-3.664,3.663-3.664 s3.663,1.641,3.663,3.664C37.871,66.049,36.23,67.689,34.207,67.689z M50.001,66.734l-5.765-5.766l5.765-5.765l5.766,5.766 L50.001,66.734z M65.796,67.569c-1.957,0-3.543-1.586-3.543-3.543c0-1.958,1.586-3.543,3.543-3.543 c1.957,0,3.543,1.586,3.543,3.543C69.339,65.983,67.753,67.569,65.796,67.569z" fill="rgb(70, 70, 70)" style="fill: rgb(70, 70, 70);"></path></g></g></g><metadata xmlns:d="#" class="ld ld-fade" style="transform-origin: 50px 50px 0px; animation-duration: 1s; animation-delay: -0.714286s; animation-direction: normal;">
<d:name class="ld ld-fade" style="transform-origin: 50px 50px 0px; animation-duration: 1s; animation-delay: -0.642857s; animation-direction: normal;">crown</d:name>
<d:tags class="ld ld-fade" style="transform-origin: 50px 50px 0px; animation-duration: 1s; animation-delay: -0.571429s; animation-direction: normal;">king,queen,treasure,prize,winner,kingdom,empire,throne,rule,hail,crown,map</d:tags>
<d:license class="ld ld-fade" style="transform-origin: 50px 50px 0px; animation-duration: 1s; animation-delay: -0.5s; animation-direction: normal;">cc0</d:license>
<d:slug class="ld ld-fade" style="transform-origin: 50px 50px 0px; animation-duration: 1s; animation-delay: -0.428571s; animation-direction: normal;">gx7ihe</d:slug>
</metadata></g></g></g></g><style type="text/css" class="ld ld-fade" style="transform-origin: 50px 50px 0px; animation-duration: 1s; animation-delay: -0.357143s; animation-direction: normal;">path,ellipse,circle,rect,polygon,polyline,line { stroke-width: 0; }@keyframes ld-fade {
  0% {
    opacity: 1;
  }
  100% {
    opacity: 0;
  }
}
@-webkit-keyframes ld-fade {
  0% {
    opacity: 1;
  }
  100% {
    opacity: 0;
  }
}
.ld.ld-fade {
  -webkit-animation: ld-fade 1s infinite linear;
  animation: ld-fade 1s infinite linear;
}
</style></svg>